# AST/ASF file generated using VICON BodyLanguage
# -----------------------------------------------
:version 1.10
:name VICON
:units
  mass 1.0
  length 0.45
  angle deg
:documentation
   .ast/.asf automatically generated from VICON data using
   VICON BodyBuilder and BodyLanguage model FoxedUp or BRILLIANT.MOD
:root
   order TX TY TZ RX RY RZ
   axis XYZ
   position 0 0 0  
   orientation 0 0 0 
:bonedata
  begin
     id 1 
     name lhipjoint
     direction 0.603808 -0.713975 0.35448 
     length 2.2025 
     axis 0 0 0  XYZ
  end
  begin
     id 2 
     name lfemur
     direction 0.34202 -0.939693 0  
     length 6.55877  
     axis 0 0 20  XYZ
    dof rx ry rz
    limits (-160.0 20.0)
           (-70.0 70.0)
           (-60.0 70.0)
  end
  begin
     id 3 
     name ltibia
     direction 0.34202 -0.939693 0   
     length 6.80302   
     axis 0 0 20   XYZ
    dof rx
    limits (-10.0 170.0)
  end
  begin
     id 4 
     name lfoot
     direction 0.091848 -0.25235 0.963267   
     length 2.03446   
     axis -90 7.62852e-016 20   XYZ
    dof rx rz
    limits (-45.0 90.0)
           (-70.0 20.0)
  end
  begin
     id 5 
     name ltoes
     direction 1.53608e-011 -4.21925e-011 1   
     length 1.02033   
     axis -90 7.62852e-016 20   XYZ
    dof rx
    limits (-90.0 20.0)
  end
  begin
     id 6 
     name rhipjoint
     direction -0.587285 -0.724947 0.359928   
     length 2.16916  
     axis 0 0 0  XYZ 
  end
  begin
     id 7 
     name rfemur
     direction -0.34202 -0.939693 0   
     length 6.43173   
     axis 0 0 -20   XYZ
    dof rx ry rz
    limits (-160.0 20.0)
           (-70.0 70.0)
           (-70.0 60.0)
  end
  begin
     id 8 
     name rtibia
     direction -0.34202 -0.939693 0   
     length 6.70662   
     axis 0 0 -20   XYZ
    dof rx
    limits (-10.0 170.0)
 end
 begin
     id 9 
     name rfoot
     direction -0.11854 -0.325686 0.938018   
     length 2.0773  
     axis -90 -7.62852e-016 -20   XYZ
    dof rx rz
    limits (-45.0 90.0)
           (-20.0 70.0)
  end
  begin
     id 10 
     name rtoes
     direction -1.53547e-011 -4.21838e-011 1   
     length 1.03267   
     axis -90 -7.62852e-016 -20   XYZ
    dof rx
    limits (-90.0 20.0)
  end
  begin
     id 11 
     name lowerback
     direction -0.0286554 0.999539 0.0100613   
     length 2.08751   
     axis 0 0 0   XYZ
    dof rx ry rz
    limits (-20.0 45.0)
           (-30.0 30.0)
           (-30.0 30.0)
  end
  begin
     id 12 
     name upperback
     direction 0.0227093 0.999705 -0.00860929   
     length 2.08517   
     axis 0 0 0   XYZ
    dof rx ry rz
    limits (-20.0 45.0)
           (-30.0 30.0)
           (-30.0 30.0)
  end
  begin
     id 13 
     name thorax
     direction 0.0351627 0.999285 -0.013892   
     length 2.08412   
     axis 0 0 0   XYZ
    dof rx ry rz
    limits (-20.0 45.0)
           (-30.0 30.0)
           (-30.0 30.0)
  end
  begin
     id 14 
     name lowerneck
     direction -0.0696283 0.997344 0.0213922   
     length 1.44164   
     axis 0 0 0   XYZ
    dof rx ry rz
    limits (-20.0 45.0)
           (-30.0 30.0)
           (-30.0 30.0)
  end
  begin
     id 15 
     name upperneck
     direction 0.0531 0.990412 -0.127531   
     length 1.45022   
     axis 0 0 0   XYZ
    dof rx ry rz
    limits (-20.0 45.0)
           (-30.0 30.0)
           (-30.0 30.0)
  end
  begin
     id 16
     name head
     direction 0.0188154 0.998548 -0.0504727  
     length 1.45845  
     axis 0 0 0   XYZ
    dof rx ry rz
    limits (-20.0 45.0)
           (-30.0 30.0)
           (-30.0 30.0)
  end
  begin
     id 17 
     name lclavicle
     direction 0.961559 0.260051 0.088188  
     length 2.86057  
     axis 0 0 0   XYZ
    dof ry rz
    limits (-20.0 10.0)
           (0.0 20.0)
  end
  begin
     id 18 
     name lhumerus
     direction 1 -4.48959e-011 2.88185e-027   
     length 4.36901   
     axis 180 -30 -90   XYZ
    dof rx ry rz
    limits (-60.0 90.0)
           (-90.0 90.0)
           (-90.0 90.0)
  end
  begin
     id 19
     name lradius
     direction 1 -4.48965e-011 -3.92618e-028   
     length 3.21737   
     axis 180 -30 -90   XYZ
    dof rx
    limits (-10.0 170.0)
  end
  begin
     id 20
     name lwrist
     direction 1 -4.49037e-011 2.57246e-027   
     length 1.60869   
     axis -1.61769e-015 90 90   XYZ
    dof ry
    limits (-180.0 0.0)
 end
  begin
     id 21 
     name lhand
     direction 1 -4.48807e-011 5.12958e-027   
     length 0.564313   
     axis -3.27988e-015 90 90   XYZ
    dof rx rz
    limits (-90.0 90.0)
           (-45.0 45.0)
  end
  begin
     id 22 
     name lfingers
     direction 1 -4.48879e-011 1.02687e-026   
     length 0.454963   
     axis -6.5598e-015 90 90   XYZ
    dof rx
    limits (0.0 90.0)
  end
  begin
     id 23
     name lthumb
     direction 0.707107 -6.3475e-011 0.707107   
     length 0.653239   
     axis -90 45 2.19363e-014   XYZ
    dof rx rz
    limits (-45.0 45.0)
           (-45.0 45.0)
  end
  begin
     id 24 
     name rclavicle
     direction -0.954677 0.253915 0.155304   
     length 3.11497  
     axis 0 0 0   XYZ 
    dof ry rz
    limits (-10.0 20.0)
           (-20.0 0.0)
  end
  begin
     id 25 
     name rhumerus
     direction -1 -4.48958e-011 -8.20169e-028  
     length 4.34118   
     axis 180 30 90   XYZ
    dof rx ry rz
    limits (-90.0 60.0)
           (-90.0 90.0)
           (-90.0 90.0)
  end
  begin
     id 26 
     name rradius
     direction -1 -4.48978e-011 1.5676e-027   
     length 3.09531   
     axis 180 30 90   XYZ
    dof rx
    limits (-10.0 170.0)
  end
  begin
     id 27 
     name rwrist
     direction -1 -4.49001e-011 2.57123e-027   
     length 1.54765   
     axis -1.61769e-015 -90 -90   XYZ
    dof ry
    limits (-180.0 0.0)
  end
  begin
     id 28
     name rhand
     direction -1 -4.48847e-011 5.13225e-027   
     length 0.597446   
     axis -3.27988e-015 -90 -90   XYZ
    dof rx rz
    limits (-90.0 90.0)
           (-45.0 45.0)
  end
  begin
     id 29
     name rfingers
     direction -1 -4.49094e-011 1.02974e-026   
     length 0.481677   
     axis -6.5598e-015 -90 -90   XYZ
    dof rx
    limits (0.0 90.0)
  end
  begin
     id 30
     name rthumb
     direction -0.707107 -6.34859e-011 0.707107   
     length 0.691594   
     axis -90 -45 -2.19363e-014   XYZ
    dof rx rz
    limits (-45.0 45.0)
           (-45.0 45.0)
  end
:hierarchy
  begin
    root lhipjoint rhipjoint lowerback
    lhipjoint lfemur
    lfemur ltibia
    ltibia lfoot
    lfoot ltoes
    rhipjoint rfemur
    rfemur rtibia
    rtibia rfoot
    rfoot rtoes
    lowerback upperback
    upperback thorax
    thorax lowerneck lclavicle rclavicle
    lowerneck upperneck
    upperneck head
    lclavicle lhumerus
    lhumerus lradius
    lradius lwrist
    lwrist lhand lthumb
    lhand lfingers
    rclavicle rhumerus
    rhumerus rradius
    rradius rwrist
    rwrist rhand rthumb
    rhand rfingers
  end

#!OML:ASF I:\Acrobat_Osman\acrobat\cartwheel_test 2\Patient 1\Session 1\acrobat.ASF
:FULLY-SPECIFIED
:DEGREES
824
root 6.51762 17.8442 -11.5688 6.6876 1.06886 0.0660843
lowerback 9.54438 0.63728 -3.83025
upperback -1.47085 0.425929 0.51665
thorax -6.95167 0.372035 2.63742
lowerneck -9.28739 -4.39257 -6.4968
upperneck 7.41225 -5.59671 5.8777
head 4.07787 -2.64547 2.49325
rclavicle 2.26118e-015 -2.93207e-015
rhumerus 88.9451 -32.1354 -46.6931
rradius 25.1351
rwrist 11.2321
rhand -18.0016 24.4356
rfingers 7.12502
rthumb 8.26875 -5.38255
lclavicle 2.26118e-015 -2.93207e-015
lhumerus 68.2965 35.6601 21.4618
lradius 39.4019
lwrist 18.5032
lhand -13.5362 43.0826
lfingers 7.12502
lthumb 12.5763 432.684
rfemur -22.2931 8.69571 23.7097
rtibia 36.179
rfoot 3.04002 -17.3309
rtoes 1.46217
lfemur -202.763 182.959 -201.827
ltibia 37.4703
lfoot 11.3191 2.15337
ltoes -28.8547
825
root 6.53892 18.3401 -11.5542 8.22864 1.37585 0.371949
lowerback 8.63041 0.577786 -3.74741
upperback -2.22801 0.376679 0.445573
thorax -7.23028 0.359974 2.52396
lowerneck -8.97099 -4.33236 -6.37348
upperneck 6.89598 -5.54571 6.0458
head 3.86705 -2.61535 2.53794
rclavicle 2.30777e-015 -9.86469e-015
rhumerus 95.1018 -35.4361 -51.9115
rradius 24.9828
rwrist 13.0155
rhand -16.2506 23.1412
rfingers 7.12502
rthumb 9.9584 -6.6032
lclavicle 2.30777e-015 -9.86469e-015
lhumerus 69.8309 40.9959 20.7329
lradius 37.2127
lwrist 16.7892
lhand -13.1448 43.9273
lfingers 7.12502
lthumb 12.9537 433.505
rfemur -23.1086 7.78096 23.3546
rtibia 36.499
rfoot 8.34834 -23.1909
rtoes 8.84169
lfemur -203.132 181.516 -202.846
ltibia 36.7829
lfoot 13.5516 3.10223
ltoes -22.7022
826
root 6.5496 18.8131 -11.5562 8.82142 1.65086 0.837055
lowerback 8.61016 0.616565 -4.09682
upperback -2.61745 0.375602 0.353964
thorax -7.63972 0.387352 2.62395
lowerneck -8.76484 -4.35405 -6.21209
upperneck 6.47251 -5.62447 6.43637
head 3.71695 -2.63666 2.63304
rclavicle 5.60635e-016 1.52691e-014
rhumerus 100.41 -37.9023 -56.2384
rradius 25.3631
rwrist 16.2924
rhand -17.5845 20.8494
rfingers 7.12502
rthumb 8.67135 -8.95253
lclavicle 5.60635e-016 1.52691e-014
lhumerus 74.2076 45.287 23.9543
lradius 35.1798
lwrist 16.0682
lhand -14.6038 44.8361
lfingers 7.12502
lthumb 11.5469 434.498
rfemur -23.1072 9.29844 22.4858
rtibia 36.8755
rfoot 7.92119 -23.4015
rtoes 12.0927
lfemur -202.741 181.572 -203.717
ltibia 36.6645
lfoot 17.0899 6.36921
ltoes -21.9339
827
root 6.55752 19.2393 -11.539 8.64439 2.03376 1.2188
lowerback 8.78676 0.631449 -4.68495
upperback -2.58085 0.33086 0.518939
thorax -7.70829 0.398894 3.13757
lowerneck -9.5233 -4.45552 -6.17879
upperneck 7.25402 -5.74954 6.33531
head 4.08307 -2.68431 2.56864
rclavicle 3.70858e-015 -4.02539e-015
rhumerus 103.131 -40.1106 -57.2001
rradius 26.5369
rwrist 14.3232
rhand -18.5821 20.9269
rfingers 7.12502
rthumb 7.70854 -8.91257
lclavicle 3.70858e-015 -4.02539e-015
lhumerus 79.141 48.2563 28.3928
lradius 34.6886
lwrist 18.8181
lhand -16.2533 45.6191
lfingers 7.12502
lthumb 9.95583 435.364
rfemur -22.3218 9.50787 21.8137
rtibia 36.9978
rfoot 8.4022 -22.3542
rtoes 13.901
lfemur -201.817 179.714 -204.23
ltibia 36.6395
lfoot 17.7391 6.3853
ltoes -19.4163
828
root 6.57237 19.6226 -11.4968 8.18233 2.50245 1.3498
lowerback 8.67608 0.528373 -4.98412
upperback -2.49469 0.184739 0.780156
thorax -7.54323 0.342782 3.60629
lowerneck -9.90207 -4.36292 -5.99761
upperneck 8.48466 -5.62305 5.7682
head 4.49169 -2.6348 2.35963
rclavicle -1.76421e-015 -1.19271e-015
rhumerus 106.061 -41.401 -58.7957
rradius 27.2668
rwrist 14.2496
rhand -14.6752 21.6447
rfingers 7.12502
rthumb 11.478 -8.02105
lclavicle -1.76421e-015 -1.19271e-015
lhumerus 81.0445 50.0223 29.4787
lradius 34.9233
lwrist 19.2333
lhand -15.9471 45.0544
lfingers 7.12502
lthumb 10.2512 434.785
rfemur -21.0877 8.61288 21.6242
rtibia 36.9291
rfoot 9.1798 -21.6071
rtoes 15.1369
lfemur -200.663 180.469 -204.334
ltibia 36.7632
lfoot 17.3835 8.26166
ltoes -15.6254
829
root 6.5902 19.9607 -11.4496 7.92915 3.14894 1.21427
lowerback 8.18441 0.280984 -4.83739
upperback -2.68628 -0.0912001 1.01044
thorax -7.43622 0.208002 3.80684
lowerneck -10.8585 -4.08124 -5.6305
upperneck 10.0847 -5.26095 5.32536
head 5.10038 -2.44881 2.16718
rclavicle 2.18663e-015 3.97569e-016
rhumerus 105.473 -42.6996 -56.8601
rradius 27.6481
rwrist 11.9143
rhand -14.7318 21.0616
rfingers 7.12502
rthumb 11.4234 -8.60719
lclavicle 2.18663e-015 3.97569e-016
lhumerus 79.2927 50.6906 26.283
lradius 35.1444
lwrist 18.0572
lhand -13.9176 45.0404
lfingers 7.12502
lthumb 12.2086 434.664
rfemur -19.9103 9.14595 21.8547
rtibia 36.8221
rfoot 9.45706 -23.3589
rtoes 17.786
lfemur -199.937 181.857 -204.347
ltibia 36.9972
lfoot 17.9909 9.30526
ltoes -6.90858
830
root 6.60275 20.2488 -11.4225 8.0434 3.82274 1.02186
lowerback 7.238 0.0379708 -4.61541
upperback -3.02009 -0.339054 1.20093
thorax -7.22019 0.0817308 3.91059
lowerneck -11.0696 -3.94236 -5.70084
upperneck 11.4191 -5.09367 5.25153
head 5.54154 -2.36656 2.16162
rclavicle -1.30204e-014 8.54774e-015
rhumerus 105.034 -43.0227 -55.845
rradius 27.741
rwrist 11.7661
rhand -13.6184 20.6284
rfingers 7.12502
rthumb 12.4971 -8.97793
lclavicle -1.30204e-014 8.54774e-015
lhumerus 76.734 50.4637 22.1097
lradius 35.6788
lwrist 19.7988
lhand -15.3717 45.6329
lfingers 7.12502
lthumb 10.8063 435.335
rfemur -19.2957 10.155 22.1529
rtibia 36.7433
rfoot 8.32115 -23.7511
rtoes 20.1951
lfemur -199.678 181.862 -204.448
ltibia 37.2614
lfoot 18.8015 7.8439
ltoes 5.10136
831
root 6.60842 20.4883 -11.4179 8.28438 4.37127 0.944383
lowerback 6.20526 -0.0449471 -4.68054
upperback -3.36995 -0.401524 1.37621
thorax -6.9904 0.0593003 4.13147
lowerneck -10.8959 -3.91091 -5.77283
upperneck 12.49 -5.05383 5.00554
head 5.84088 -2.36736 2.0992
rclavicle 2.48481e-015 4.77083e-015
rhumerus 104.402 -42.9139 -54.9707
rradius 27.9927
rwrist 11.3317
rhand -14.0716 20.3629
rfingers 7.12502
rthumb 12.0601 -9.26963
lclavicle 2.48481e-015 4.77083e-015
lhumerus 77.5593 49.7228 22.0422
lradius 35.7078
lwrist 18.9999
lhand -14.0283 46.606
lfingers 7.12502
lthumb 12.1018 436.236
rfemur -19.1882 10.0889 22.2079
rtibia 36.7574
rfoot 8.86981 -23.5125
rtoes 21.0972
lfemur -199.661 181.633 -204.512
ltibia 37.4498
lfoot 19.8294 7.56443
ltoes 3.90479
832
root 6.6127 20.6881 -11.426 8.30464 4.8269 1.01954
lowerback 5.42887 -0.0196202 -4.90331
upperback -3.58426 -0.345968 1.48574
thorax -6.77706 0.0984436 4.35951
lowerneck -11.1777 -4.08449 -6.05339
upperneck 13.551 -5.24402 4.86577
head 6.23872 -2.47721 2.07588
rclavicle 3.60297e-016 2.14687e-014
rhumerus 103.082 -42.7455 -53.5194
rradius 28.4087
rwrist 10.168
rhand -14.1517 19.3863
rfingers 7.12502
rthumb 11.9829 -10.2507
lclavicle 3.60297e-016 2.14687e-014
lhumerus 78.8539 48.3594 22.8982
lradius 35.9498
lwrist 20.5122
lhand -15.5168 46.1673
lfingers 7.12502
lthumb 10.6663 435.877
rfemur -19.08 9.19924 22.0352
rtibia 36.8636
rfoot 9.87166 -22.9277
rtoes 22.0706
lfemur -199.533 181.085 -204.672
ltibia 37.5035
lfoot 20.8332 7.28541
ltoes 3.62864
833
root 6.61979 20.8433 -11.4399 8.03349 5.20882 1.21083
lowerback 5.00726 0.00461447 -5.17363
upperback -3.69971 -0.31008 1.58263
thorax -6.66205 0.13061 4.60762
lowerneck -11.7073 -4.29959 -6.58659
upperneck 14.4542 -5.43509 4.8233
head 6.64317 -2.59215 2.11939
rclavicle 1.54058e-015 -1.70955e-014
rhumerus 101.416 -42.2339 -51.7777
rradius 28.7866
rwrist 8.9408
rhand -14.4522 20.1891
rfingers 7.12502
rthumb 11.6931 -9.46455
lclavicle 1.54058e-015 -1.70955e-014
lhumerus 79.8274 46.8229 23.6893
lradius 36.1186
lwrist 21.3069
lhand -16.0658 46.3031
lfingers 7.12502
lthumb 10.1367 436.039
rfemur -18.7373 8.36081 21.7696
rtibia 37.0179
rfoot 10.1329 -22.7708
rtoes 23.8085
lfemur -199.154 180.934 -204.948
ltibia 37.4346
lfoot 21.3397 7.40005
ltoes 4.44455
